<svg xmlns="http://www.w3.org/2000/svg" width="14" height="15" viewBox="0 0 14 15" fill="none">
<g clip-path="url(#clip0_7957_70665)">
<path fill-rule="evenodd" clip-rule="evenodd" d="M12.2541 4.99086C12.9465 5.48961 13.4166 6.26253 13.4166 7.1667C13.4166 8.07086 12.9465 8.84436 12.2541 9.34253C12.3941 10.1837 12.1759 11.068 11.5383 11.705C10.8996 12.3438 10.0158 12.5561 9.17815 12.4196C8.68173 13.1144 7.90181 13.5834 6.99998 13.5834C6.09581 13.5834 5.32115 13.1126 4.82356 12.419C3.98473 12.5561 3.1004 12.3444 2.46106 11.705C1.82231 11.0663 1.60998 10.1819 1.75115 9.34253C1.05931 8.84495 0.583313 8.07145 0.583313 7.1667C0.583313 6.26195 1.05931 5.48786 1.75115 4.99086C1.60998 4.15145 1.82231 3.26711 2.46165 2.62836C3.09923 1.9902 3.98415 1.77261 4.82823 1.91261C5.3229 1.21903 6.09756 0.750031 6.99998 0.750031C7.90123 0.750031 8.67998 1.21845 9.17698 1.91261C10.0181 1.77261 10.9013 1.99136 11.5383 2.62836C12.1759 3.26536 12.3946 4.1497 12.2541 4.99086ZM9.67223 4.94186C9.73459 4.98637 9.78757 5.04272 9.82815 5.1077C9.86874 5.17268 9.89612 5.24502 9.90874 5.32059C9.92136 5.39615 9.91897 5.47346 9.90171 5.54811C9.88445 5.62275 9.85266 5.69326 9.80815 5.75561L6.89148 9.83895C6.84224 9.90791 6.77858 9.96531 6.70491 10.0072C6.63124 10.049 6.54933 10.0743 6.46489 10.0813C6.38045 10.0883 6.29549 10.0768 6.21594 10.0477C6.13639 10.0185 6.06414 9.97237 6.00423 9.91245L4.25423 8.16245C4.14797 8.05243 4.08917 7.90508 4.0905 7.75213C4.09183 7.59918 4.15318 7.45287 4.26134 7.34472C4.36949 7.23656 4.5158 7.17522 4.66875 7.17389C4.82169 7.17256 4.96904 7.23135 5.07906 7.33761L6.34198 8.60053L8.85848 5.0772C8.94845 4.95135 9.08472 4.86639 9.23733 4.84101C9.38993 4.81563 9.54637 4.85191 9.67223 4.94186Z" fill="#00A30B"/>
</g>
<defs>
<clipPath id="clip0_7957_70665">
<rect width="14" height="14" fill="white" transform="translate(0 0.166687)"/>
</clipPath>
</defs>
</svg>