<svg xmlns="http://www.w3.org/2000/svg" width="10" height="9" viewBox="0 0 10 9" fill="none">
  <path d="M9.0656 0.906122C9.2668 0.68405 9.64109 0.684407 9.84263 0.906479C10.0538 1.11677 10.0517 1.50343 9.84091 1.71337C7.68327 3.96408 5.52184 6.21087 3.36419 8.46194C3.24286 8.61404 3.07525 8.75042 2.87474 8.739C2.68382 8.75042 2.51656 8.62939 2.40036 8.48194C1.65487 7.69826 0.902863 6.92207 0.155997 6.14018C-0.0523983 5.9306 -0.0520553 5.54679 0.157369 5.33829C0.356853 5.11729 0.728058 5.11515 0.930284 5.33329C1.57844 6.00629 2.22556 6.68036 2.872 7.35551C4.93882 5.20833 7.00049 3.05544 9.0656 0.906122Z" fill="#101828"/>
</svg>