<svg xmlns="http://www.w3.org/2000/svg" width="34" height="37" viewBox="0 0 34 37" fill="none">
<path fill-rule="evenodd" clip-rule="evenodd" d="M11.708 34.548C8.50918 33.6503 5.16009 33.1975 1.91125 32.7827C1.2115 32.6957 0.561829 33.181 0.511847 33.8648C0.411883 34.549 0.911997 35.1748 1.56177 35.2618C4.71064 35.6611 7.95919 36.0885 11.0081 36.9527C11.6579 37.1401 12.3579 36.7542 12.5578 36.0905C12.7578 35.4272 12.3578 34.736 11.708 34.548Z" fill="#005EB8"/>
<path fill-rule="evenodd" clip-rule="evenodd" d="M21.404 21.821C16.2558 16.5674 10.4579 11.99 5.40971 6.59547C4.95987 6.09165 4.16015 6.06466 3.66033 6.53499C3.16051 7.00582 3.11072 7.79754 3.61054 8.30136C8.65874 13.7114 14.4567 18.3038 19.6048 23.5729C20.1047 24.0647 20.9042 24.0717 21.404 23.5879C21.8538 23.1046 21.9038 22.3129 21.404 21.821Z" fill="#005EB8"/>
<path fill-rule="evenodd" clip-rule="evenodd" d="M31.0514 1.61379C31.2013 4.62071 31.351 7.62764 31.5009 10.6351C31.5009 11.3238 32.101 11.8556 32.8008 11.8221C33.5005 11.7881 34 11.2019 34 10.5126C33.8501 7.50068 33.7004 4.48926 33.5505 1.47784C33.5005 0.789082 32.9006 0.26077 32.2009 0.298257C31.5511 0.335743 31.0014 0.925534 31.0514 1.61379Z" fill="#005EB8"/>
</svg>