<svg width="52" height="9" viewBox="0 0 52 9" fill="none" xmlns="http://www.w3.org/2000/svg">
    <path d="M5.02299 0.262207L6.36722 3.12579L9.37325 3.5878L7.19812 5.81554L7.71145 8.96273L5.02299 7.47605L2.33453 8.96273L2.84786 5.81554L0.672729 3.5878L3.67876 3.12579L5.02299 0.262207Z" fill="#666"/>
    <path d="M15.5879 0.262207L16.9322 3.12579L19.9382 3.5878L17.7631 5.81554L18.2764 8.96273L15.5879 7.47605L12.8995 8.96273L13.4128 5.81554L11.2377 3.5878L14.2437 3.12579L15.5879 0.262207Z" fill="#666"/>
    <path d="M26.1529 0.262207L27.4971 3.12579L30.5031 3.5878L28.328 5.81554L28.8413 8.96273L26.1529 7.47605L23.4644 8.96273L23.9777 5.81554L21.8026 3.5878L24.8086 3.12579L26.1529 0.262207Z" fill="#666"/>
    <path d="M36.7178 0.262207L38.062 3.12579L41.0681 3.5878L38.8929 5.81554L39.4063 8.96273L36.7178 7.47605L34.0294 8.96273L34.5427 5.81554L32.3676 3.5878L35.3736 3.12579L36.7178 0.262207Z" fill="#666"/>
    <path d="M47.2828 0.262207L48.627 3.12579L51.633 3.5878L49.4579 5.81554L49.9712 8.96273L47.2828 7.47605L44.5943 8.96273L45.1076 5.81554L42.9325 3.5878L45.9385 3.12579L47.2828 0.262207Z" fill="#666"/>
</svg>
