<svg xmlns="http://www.w3.org/2000/svg" width="24" height="24" viewBox="0 0 24 24" fill="none">
  <path d="M0 4V12.8889H11.0769H12.9231H24V11.1111H12.9231V9.33333H24V7.55556H12.9231V5.77778H24V4H12.9231H11.0769H0ZM1.84615 4.88889C2.35569 4.88889 2.76923 5.28711 2.76923 5.77778C2.76923 6.26844 2.35569 6.66667 1.84615 6.66667C1.33662 6.66667 0.923077 6.26844 0.923077 5.77778C0.923077 5.28711 1.33662 4.88889 1.84615 4.88889ZM5.53846 4.88889C6.048 4.88889 6.46154 5.28711 6.46154 5.77778C6.46154 6.26844 6.048 6.66667 5.53846 6.66667C5.02892 6.66667 4.61538 6.26844 4.61538 5.77778C4.61538 5.28711 5.02892 4.88889 5.53846 4.88889ZM9.23077 4.88889C9.74031 4.88889 10.1538 5.28711 10.1538 5.77778C10.1538 6.26844 9.74031 6.66667 9.23077 6.66667C8.72123 6.66667 8.30769 6.26844 8.30769 5.77778C8.30769 5.28711 8.72123 4.88889 9.23077 4.88889ZM3.69231 7.55556C4.20185 7.55556 4.61538 7.95378 4.61538 8.44444C4.61538 8.93511 4.20185 9.33333 3.69231 9.33333C3.18277 9.33333 2.76923 8.93511 2.76923 8.44444C2.76923 7.95378 3.18277 7.55556 3.69231 7.55556ZM7.38462 7.55556C7.89415 7.55556 8.30769 7.95378 8.30769 8.44444C8.30769 8.93511 7.89415 9.33333 7.38462 9.33333C6.87508 9.33333 6.46154 8.93511 6.46154 8.44444C6.46154 7.95378 6.87508 7.55556 7.38462 7.55556ZM11.0769 7.55556C11.5865 7.55556 12 7.95378 12 8.44444C12 8.93511 11.5865 9.33333 11.0769 9.33333C10.5674 9.33333 10.1538 8.93511 10.1538 8.44444C10.1538 7.95378 10.5674 7.55556 11.0769 7.55556ZM1.84615 10.2222C2.35569 10.2222 2.76923 10.6204 2.76923 11.1111C2.76923 11.6018 2.35569 12 1.84615 12C1.33662 12 0.923077 11.6018 0.923077 11.1111C0.923077 10.6204 1.33662 10.2222 1.84615 10.2222ZM5.53846 10.2222C6.048 10.2222 6.46154 10.6204 6.46154 11.1111C6.46154 11.6018 6.048 12 5.53846 12C5.02892 12 4.61538 11.6018 4.61538 11.1111C4.61538 10.6204 5.02892 10.2222 5.53846 10.2222ZM9.23077 10.2222C9.74031 10.2222 10.1538 10.6204 10.1538 11.1111C10.1538 11.6018 9.74031 12 9.23077 12C8.72123 12 8.30769 11.6018 8.30769 11.1111C8.30769 10.6204 8.72123 10.2222 9.23077 10.2222ZM0 14.6667V16.4444H24V14.6667H0ZM0 18.2222V20H24V18.2222H0Z" fill="#C4C4C4"/>
</svg>