<svg width="140" height="24" viewBox="0 0 140 24" fill="none" xmlns="http://www.w3.org/2000/svg">
<path d="M11.9998 17.75L5.82784 20.995L7.00684 14.122L2.00684 9.25495L8.90684 8.25495L11.9928 2.00195L15.0788 8.25495L21.9788 9.25495L16.9788 14.122L18.1578 20.995L11.9998 17.75Z" fill="#FF7A00" stroke="#FF7A00" stroke-width="2" stroke-linecap="round" stroke-linejoin="round"/>
<path d="M40.9998 17.75L34.8278 20.995L36.0068 14.122L31.0068 9.25495L37.9068 8.25495L40.9928 2.00195L44.0788 8.25495L50.9788 9.25495L45.9788 14.122L47.1578 20.995L40.9998 17.75Z" fill="#FF7A00" stroke="#FF7A00" stroke-width="2" stroke-linecap="round" stroke-linejoin="round"/>
<path d="M69.9998 17.75L63.8278 20.995L65.0068 14.122L60.0068 9.25495L66.9068 8.25495L69.9928 2.00195L73.0788 8.25495L79.9788 9.25495L74.9788 14.122L76.1578 20.995L69.9998 17.75Z" fill="#FF7A00" stroke="#FF7A00" stroke-width="2" stroke-linecap="round" stroke-linejoin="round"/>
<path d="M98.9998 17.75L92.8278 20.995L94.0068 14.122L89.0068 9.25495L95.9068 8.25495L98.9928 2.00195L102.079 8.25495L108.979 9.25495L103.979 14.122L105.158 20.995L98.9998 17.75Z" fill="#FF7A00" stroke="#FF7A00" stroke-width="2" stroke-linecap="round" stroke-linejoin="round"/>
<path d="M128 17.75L121.828 20.995L123.007 14.122L118.007 9.25495L124.907 8.25495L127.993 2.00195L131.079 8.25495L137.979 9.25495L132.979 14.122L134.158 20.995L128 17.75Z" fill="#FF7A00" stroke="#FF7A00" stroke-width="2" stroke-linecap="round" stroke-linejoin="round"/>
</svg>
