<svg xmlns="http://www.w3.org/2000/svg" width="120" height="25" viewBox="0 0 120 25" fill="none">
<path d="M12 0.666687L14.6942 8.95848H23.4127L16.3593 14.0831L19.0534 22.3749L12 17.2503L4.94658 22.3749L7.64074 14.0831L0.587322 8.95848H9.30583L12 0.666687Z" fill="#FF7A00"/>
<path d="M36 0.666687L38.6942 8.95848H47.4127L40.3593 14.0831L43.0534 22.3749L36 17.2503L28.9466 22.3749L31.6407 14.0831L24.5873 8.95848H33.3058L36 0.666687Z" fill="#FF7A00"/>
<path d="M60 0.666687L62.6942 8.95848H71.4127L64.3593 14.0831L67.0534 22.3749L60 17.2503L52.9466 22.3749L55.6407 14.0831L48.5873 8.95848H57.3058L60 0.666687Z" fill="#FF7A00"/>
<path d="M84 0.666687L86.6942 8.95848H95.4127L88.3593 14.0831L91.0534 22.3749L84 17.2503L76.9466 22.3749L79.6407 14.0831L72.5873 8.95848H81.3058L84 0.666687Z" fill="#FF7A00"/>
<path d="M108 0.666687L110.694 8.95848H119.413L112.359 14.0831L115.053 22.3749L108 17.2503L100.947 22.3749L103.641 14.0831L96.5873 8.95848H105.306L108 0.666687Z" fill="#FF7A00"/>
</svg>