<svg width="134" height="23" viewBox="0 0 134 23" fill="none" xmlns="http://www.w3.org/2000/svg">
    <path d="M11 0.677246L14.399 7.91805L22 9.08629L16.5 14.7193L17.798 22.6772L11 18.918L4.202 22.6772L5.5 14.7193L0 9.08629L7.601 7.91805L11 0.677246Z" fill="#FFC107"/>
    <path d="M39 0.677246L42.399 7.91805L50 9.08629L44.5 14.7193L45.798 22.6772L39 18.918L32.202 22.6772L33.5 14.7193L28 9.08629L35.601 7.91805L39 0.677246Z" fill="#FFC107"/>
    <path d="M67 0.677246L70.399 7.91805L78 9.08629L72.5 14.7193L73.798 22.6772L67 18.918L60.202 22.6772L61.5 14.7193L56 9.08629L63.601 7.91805L67 0.677246Z" fill="#FFC107"/>
    <path d="M95 0.677246L98.399 7.91805L106 9.08629L100.5 14.7193L101.798 22.6772L95 18.918L88.202 22.6772L89.5 14.7193L84 9.08629L91.601 7.91805L95 0.677246Z" fill="#FFC107"/>
    <path d="M123 0.677246L126.399 7.91805L134 9.08629L128.5 14.7193L129.798 22.6772L123 18.918L116.202 22.6772L117.5 14.7193L112 9.08629L119.601 7.91805L123 0.677246Z" fill="#FFC107"/>
</svg>
