<svg width="240" height="51" viewBox="0 0 240 51" fill="none" xmlns="http://www.w3.org/2000/svg">
<path d="M106.094 29.1691C106.973 27.6963 113.702 26.3276 118.892 25.2197C131.642 22.4976 150.005 20.6509 170.765 20.9816C192.909 21.3344 200.522 25.1241 203.024 28.4605C205.619 31.9198 203.205 35.5226 187.273 37.9076C172.942 40.0529 156.528 40.5126 138.126 39.9676C117.282 39.3502 90.5181 37.5006 74.5912 35.021C58.4033 32.5007 61.8817 28.8236 70.6534 25.7839C87.4047 19.979 114.421 16.6855 148.047 14.1325C162.349 13.0466 193.141 10.4221 208.78 12.4268C218.819 13.7137 223.175 16.7626 225.894 18.6986C230.64 22.0785 231.096 25.6036 228.166 29.0379C224.912 32.852 216.123 36.1971 196.057 38.1175C166.7 40.9273 132.373 41.6518 99.8841 40.4268C70.6158 39.3232 40.2646 37.6421 24.157 32.9217C8.86148 28.4392 4.6281 22.8727 18.0988 18.1213C29.8073 13.9915 54.7881 10.906 80.9523 10.1962C92.7078 9.87734 104.26 9.82701 114.272 10.9835M127.617 29.5808C129.201 32.0523 154.195 34.0459 166.272 34.0459" stroke="#FFF7B1" stroke-width="18.4659" stroke-linecap="round"/>
</svg>
