<svg xmlns="http://www.w3.org/2000/svg" width="15" height="28" viewBox="0 0 15 28" fill="none">
<path d="M8.46723 15.9134C7.55998 15.9134 6.64884 15.9134 5.74159 15.9134C5.06407 15.9134 4.40212 15.8433 3.76744 15.5824C2.29169 14.9711 1.69984 13.6005 2.30337 12.1131C2.74726 11.015 3.53381 10.135 4.2269 9.20052C6.13096 6.64231 8.17907 4.20872 10.3713 1.89581C10.9592 1.2767 11.6095 0.731571 12.3376 0.287681C12.7776 0.0190099 13.2605 -0.160109 13.7199 0.2098C14.23 0.622541 14.1249 1.18324 13.8679 1.66217C13.5019 2.34748 13.0852 3.00942 12.6258 3.63242C10.9748 5.89081 9.42899 8.2193 7.95715 10.5945C7.7975 10.8515 7.44314 11.1085 7.64173 11.4317C7.82473 11.7315 8.22581 11.5757 8.53342 11.5952C9.69766 11.6731 10.8658 11.7042 12.0261 11.8055C14.4675 12.0196 15.4799 14.0016 13.9925 15.9134C10.9047 19.8851 7.45874 23.5374 3.74407 26.9328C3.19505 27.4351 2.54089 27.8128 1.78939 27.9608C0.936653 28.1282 0.484982 27.7583 0.531707 26.8783C0.582327 25.9399 0.95612 25.0988 1.44674 24.3084C2.93416 21.9137 4.93946 19.9551 6.8513 17.9226C7.40422 17.3346 8.09341 16.8752 8.71641 16.3573C8.63075 16.2093 8.5451 16.0614 8.45943 15.9095L8.46723 15.9134Z" fill="#FF6A13"/>
</svg>